<svg width="167" height="108" viewBox="0 0 167 108" fill="none" xmlns="http://www.w3.org/2000/svg">
<path d="M3.36 96V61.44H24.48V67.968H9.888V75.456H21.6V81.984H9.888V96H3.36ZM27.8531 96V60.72H34.3811V96H27.8531ZM49.7843 96.768C47.7522 96.768 46.0962 96.424 44.8162 95.736C43.5362 95.048 42.5362 94.176 41.8162 93.12C41.1122 92.064 40.6082 90.968 40.3042 89.832C40.0002 88.68 39.8162 87.632 39.7522 86.688C39.6882 85.744 39.6562 85.056 39.6562 84.624V70.08H46.2802V82.32C46.2802 82.912 46.3122 83.672 46.3762 84.6C46.4402 85.512 46.6402 86.432 46.9762 87.36C47.3122 88.288 47.8562 89.064 48.6082 89.688C49.3762 90.312 50.4562 90.624 51.8482 90.624C52.4082 90.624 53.0082 90.536 53.6482 90.36C54.2882 90.184 54.8882 89.848 55.4483 89.352C56.0082 88.84 56.4642 88.096 56.8162 87.12C57.1842 86.128 57.3682 84.832 57.3682 83.232L61.1123 85.008C61.1123 87.056 60.6963 88.976 59.8643 90.768C59.0322 92.56 57.7762 94.008 56.0963 95.112C54.4323 96.216 52.3282 96.768 49.7843 96.768ZM58.1842 96V87.408H57.3682V70.08H63.9443V96H58.1842ZM69.6919 66.48V60.72H76.2199V66.48H69.6919ZM69.6919 96V70.08H76.2199V96H69.6919ZM92.487 96.72C90.103 96.72 88.015 96.12 86.223 94.92C84.431 93.72 83.031 92.088 82.023 90.024C81.031 87.96 80.535 85.632 80.535 83.04C80.535 80.4 81.039 78.056 82.047 76.008C83.071 73.944 84.503 72.32 86.343 71.136C88.183 69.952 90.343 69.36 92.823 69.36C95.287 69.36 97.359 69.96 99.039 71.16C100.719 72.36 101.991 73.992 102.855 76.056C103.719 78.12 104.151 80.448 104.151 83.04C104.151 85.632 103.711 87.96 102.831 90.024C101.967 92.088 100.671 93.72 98.943 94.92C97.215 96.12 95.063 96.72 92.487 96.72ZM93.543 90.912C94.999 90.912 96.159 90.584 97.023 89.928C97.903 89.272 98.535 88.352 98.919 87.168C99.303 85.984 99.495 84.608 99.495 83.04C99.495 81.472 99.303 80.096 98.919 78.912C98.535 77.728 97.919 76.808 97.071 76.152C96.239 75.496 95.143 75.168 93.783 75.168C92.327 75.168 91.127 75.528 90.183 76.248C89.255 76.952 88.567 77.904 88.119 79.104C87.671 80.288 87.447 81.6 87.447 83.04C87.447 84.496 87.663 85.824 88.095 87.024C88.527 88.208 89.191 89.152 90.087 89.856C90.983 90.56 92.135 90.912 93.543 90.912ZM99.495 96V78.24H98.679V61.44H105.255V96H99.495ZM111.015 66.48V60.72H117.543V66.48H111.015ZM111.015 96V70.08H117.543V96H111.015ZM138.85 96C137.058 96.336 135.298 96.48 133.57 96.432C131.858 96.4 130.322 96.104 128.962 95.544C127.618 94.968 126.594 94.048 125.89 92.784C125.25 91.6 124.914 90.4 124.882 89.184C124.85 87.952 124.834 86.56 124.834 85.008V62.88H131.362V84.624C131.362 85.632 131.37 86.544 131.386 87.36C131.418 88.16 131.586 88.8 131.89 89.28C132.466 90.192 133.386 90.688 134.65 90.768C135.914 90.848 137.314 90.784 138.85 90.576V96ZM120.418 75.12V70.08H138.85V75.12H120.418ZM145.795 107.52L150.787 93.792L150.883 97.824L139.603 70.08H146.371L153.955 89.712H152.419L159.955 70.08H166.483L151.843 107.52H145.795Z" fill="#333268"/>
<path d="M2 27.3361C2 12.2388 13.8754 -1.31984e-06 28.5244 0C36.4665 7.15583e-07 43.5935 3.5975 48.4546 9.2976C57.2746 19.5029 64.5679 18.966 72.3132 11.432C76.1135 7.73411 81.239 5.46721 86.8781 5.46721C98.5973 5.46723 108.098 15.2582 108.098 27.3361C108.098 39.4139 98.5973 49.2049 86.8781 49.2049C81.239 49.2049 76.1135 46.9379 72.3132 43.24C64.5698 35.7079 57.2781 35.1693 48.461 45.3669C43.5998 51.0715 36.47 54.6721 28.5244 54.6721C13.8754 54.6721 2 42.4333 2 27.3361Z" fill="#F2F5FA"/>
<path d="M2 27.3361C2 12.2388 13.8754 -1.31984e-06 28.5244 0C36.4665 7.15583e-07 43.5935 3.5975 48.4546 9.2976C57.2746 19.5029 64.5679 18.966 72.3132 11.432C76.1135 7.73411 81.239 5.46721 86.8781 5.46721C98.5973 5.46723 108.098 15.2582 108.098 27.3361C108.098 39.4139 98.5973 49.2049 86.8781 49.2049C81.239 49.2049 76.1135 46.9379 72.3132 43.24C64.5698 35.7079 57.2781 35.1693 48.461 45.3669C43.5998 51.0715 36.47 54.6721 28.5244 54.6721C13.8754 54.6721 2 42.4333 2 27.3361Z" fill="url(#paint0_linear_1_24)"/>
<path d="M2 27.3361C2 12.2388 13.8754 -1.31984e-06 28.5244 0C36.4665 7.15583e-07 43.5935 3.5975 48.4546 9.2976C57.2746 19.5029 64.5679 18.966 72.3132 11.432C76.1135 7.73411 81.239 5.46721 86.8781 5.46721C98.5973 5.46723 108.098 15.2582 108.098 27.3361C108.098 39.4139 98.5973 49.2049 86.8781 49.2049C81.239 49.2049 76.1135 46.9379 72.3132 43.24C64.5698 35.7079 57.2781 35.1693 48.461 45.3669C43.5998 51.0715 36.47 54.6721 28.5244 54.6721C13.8754 54.6721 2 42.4333 2 27.3361Z" fill="url(#paint1_linear_1_24)"/>
<path d="M2 27.3361C2 12.2388 13.8754 -1.31984e-06 28.5244 0C36.4665 7.15583e-07 43.5935 3.5975 48.4546 9.2976C57.2746 19.5029 64.5679 18.966 72.3132 11.432C76.1135 7.73411 81.239 5.46721 86.8781 5.46721C98.5973 5.46723 108.098 15.2582 108.098 27.3361C108.098 39.4139 98.5973 49.2049 86.8781 49.2049C81.239 49.2049 76.1135 46.9379 72.3132 43.24C64.5698 35.7079 57.2781 35.1693 48.461 45.3669C43.5998 51.0715 36.47 54.6721 28.5244 54.6721C13.8754 54.6721 2 42.4333 2 27.3361Z" fill="url(#paint2_radial_1_24)"/>
<path d="M2 27.3361C2 12.2388 13.8754 -1.31984e-06 28.5244 0C36.4665 7.15583e-07 43.5935 3.5975 48.4546 9.2976C57.2746 19.5029 64.5679 18.966 72.3132 11.432C76.1135 7.73411 81.239 5.46721 86.8781 5.46721C98.5973 5.46723 108.098 15.2582 108.098 27.3361C108.098 39.4139 98.5973 49.2049 86.8781 49.2049C81.239 49.2049 76.1135 46.9379 72.3132 43.24C64.5698 35.7079 57.2781 35.1693 48.461 45.3669C43.5998 51.0715 36.47 54.6721 28.5244 54.6721C13.8754 54.6721 2 42.4333 2 27.3361Z" fill="url(#paint3_radial_1_24)"/>
<path d="M2 27.3361C2 12.2388 13.8754 -1.31984e-06 28.5244 0C36.4665 7.15583e-07 43.5935 3.5975 48.4546 9.2976C57.2746 19.5029 64.5679 18.966 72.3132 11.432C76.1135 7.73411 81.239 5.46721 86.8781 5.46721C98.5973 5.46723 108.098 15.2582 108.098 27.3361C108.098 39.4139 98.5973 49.2049 86.8781 49.2049C81.239 49.2049 76.1135 46.9379 72.3132 43.24C64.5698 35.7079 57.2781 35.1693 48.461 45.3669C43.5998 51.0715 36.47 54.6721 28.5244 54.6721C13.8754 54.6721 2 42.4333 2 27.3361Z" fill="url(#paint4_radial_1_24)"/>
<defs>
<linearGradient id="paint0_linear_1_24" x1="81.9319" y1="40.9228" x2="19.4722" y2="-6.17498" gradientUnits="userSpaceOnUse">
<stop stop-color="#FF557E"/>
<stop offset="0.841052" stop-color="#FF5555" stop-opacity="0"/>
</linearGradient>
<linearGradient id="paint1_linear_1_24" x1="28.5286" y1="51.0059" x2="45.78" y2="-6.98097" gradientUnits="userSpaceOnUse">
<stop stop-color="#58CCDC"/>
<stop offset="1" stop-color="#58CCDC" stop-opacity="0"/>
</linearGradient>
<radialGradient id="paint2_radial_1_24" cx="0" cy="0" r="1" gradientTransform="matrix(-36.8421 -58.6291 46.5831 -31.0914 85.2096 66.0609)" gradientUnits="userSpaceOnUse">
<stop stop-color="#8263DB"/>
<stop offset="0.568731" stop-color="#8172DA" stop-opacity="0.26"/>
<stop offset="1" stop-color="#8172DA" stop-opacity="0"/>
</radialGradient>
<radialGradient id="paint3_radial_1_24" cx="0" cy="0" r="1" gradientTransform="matrix(9.74522 45.9651 -70.1017 15.7861 35.4795 -7.90866)" gradientUnits="userSpaceOnUse">
<stop stop-color="#41D1B7"/>
<stop offset="0.492704" stop-color="#41D1B7" stop-opacity="0.35"/>
<stop offset="1" stop-color="#41D1B7" stop-opacity="0"/>
</radialGradient>
<radialGradient id="paint4_radial_1_24" cx="0" cy="0" r="1" gradientTransform="matrix(-28.5268 41.8114 -85.9311 -62.2715 111.106 -20.2562)" gradientUnits="userSpaceOnUse">
<stop stop-color="#FFEC45"/>
<stop offset="0.549191" stop-color="#FFEC45" stop-opacity="0.3"/>
<stop offset="0.961144" stop-color="#FFEC45" stop-opacity="0"/>
</radialGradient>
</defs>
</svg>
