<svg width="107" height="55" viewBox="0 0 107 55" fill="none" xmlns="http://www.w3.org/2000/svg">
<path d="M0 27.3361C1.28066e-06 12.2388 11.8754 -1.31984e-06 26.5244 0C34.4665 7.15583e-07 41.5935 3.5975 46.4546 9.2976C55.2746 19.5029 62.5679 18.966 70.3132 11.432C74.1135 7.73411 79.239 5.46721 84.8781 5.46721C96.5973 5.46723 106.098 15.2582 106.098 27.3361C106.098 39.4139 96.5973 49.2049 84.8781 49.2049C79.239 49.2049 74.1135 46.9379 70.3132 43.24C62.5698 35.7079 55.2781 35.1693 46.461 45.3669C41.5998 51.0715 34.47 54.6721 26.5244 54.6721C11.8754 54.6721 -1.28065e-06 42.4333 0 27.3361Z" fill="#F2F5FA"/>
<path d="M0 27.3361C1.28066e-06 12.2388 11.8754 -1.31984e-06 26.5244 0C34.4665 7.15583e-07 41.5935 3.5975 46.4546 9.2976C55.2746 19.5029 62.5679 18.966 70.3132 11.432C74.1135 7.73411 79.239 5.46721 84.8781 5.46721C96.5973 5.46723 106.098 15.2582 106.098 27.3361C106.098 39.4139 96.5973 49.2049 84.8781 49.2049C79.239 49.2049 74.1135 46.9379 70.3132 43.24C62.5698 35.7079 55.2781 35.1693 46.461 45.3669C41.5998 51.0715 34.47 54.6721 26.5244 54.6721C11.8754 54.6721 -1.28065e-06 42.4333 0 27.3361Z" fill="url(#paint0_linear_1_13)"/>
<path d="M0 27.3361C1.28066e-06 12.2388 11.8754 -1.31984e-06 26.5244 0C34.4665 7.15583e-07 41.5935 3.5975 46.4546 9.2976C55.2746 19.5029 62.5679 18.966 70.3132 11.432C74.1135 7.73411 79.239 5.46721 84.8781 5.46721C96.5973 5.46723 106.098 15.2582 106.098 27.3361C106.098 39.4139 96.5973 49.2049 84.8781 49.2049C79.239 49.2049 74.1135 46.9379 70.3132 43.24C62.5698 35.7079 55.2781 35.1693 46.461 45.3669C41.5998 51.0715 34.47 54.6721 26.5244 54.6721C11.8754 54.6721 -1.28065e-06 42.4333 0 27.3361Z" fill="url(#paint1_linear_1_13)"/>
<path d="M0 27.3361C1.28066e-06 12.2388 11.8754 -1.31984e-06 26.5244 0C34.4665 7.15583e-07 41.5935 3.5975 46.4546 9.2976C55.2746 19.5029 62.5679 18.966 70.3132 11.432C74.1135 7.73411 79.239 5.46721 84.8781 5.46721C96.5973 5.46723 106.098 15.2582 106.098 27.3361C106.098 39.4139 96.5973 49.2049 84.8781 49.2049C79.239 49.2049 74.1135 46.9379 70.3132 43.24C62.5698 35.7079 55.2781 35.1693 46.461 45.3669C41.5998 51.0715 34.47 54.6721 26.5244 54.6721C11.8754 54.6721 -1.28065e-06 42.4333 0 27.3361Z" fill="url(#paint2_radial_1_13)"/>
<path d="M0 27.3361C1.28066e-06 12.2388 11.8754 -1.31984e-06 26.5244 0C34.4665 7.15583e-07 41.5935 3.5975 46.4546 9.2976C55.2746 19.5029 62.5679 18.966 70.3132 11.432C74.1135 7.73411 79.239 5.46721 84.8781 5.46721C96.5973 5.46723 106.098 15.2582 106.098 27.3361C106.098 39.4139 96.5973 49.2049 84.8781 49.2049C79.239 49.2049 74.1135 46.9379 70.3132 43.24C62.5698 35.7079 55.2781 35.1693 46.461 45.3669C41.5998 51.0715 34.47 54.6721 26.5244 54.6721C11.8754 54.6721 -1.28065e-06 42.4333 0 27.3361Z" fill="url(#paint3_radial_1_13)"/>
<path d="M0 27.3361C1.28066e-06 12.2388 11.8754 -1.31984e-06 26.5244 0C34.4665 7.15583e-07 41.5935 3.5975 46.4546 9.2976C55.2746 19.5029 62.5679 18.966 70.3132 11.432C74.1135 7.73411 79.239 5.46721 84.8781 5.46721C96.5973 5.46723 106.098 15.2582 106.098 27.3361C106.098 39.4139 96.5973 49.2049 84.8781 49.2049C79.239 49.2049 74.1135 46.9379 70.3132 43.24C62.5698 35.7079 55.2781 35.1693 46.461 45.3669C41.5998 51.0715 34.47 54.6721 26.5244 54.6721C11.8754 54.6721 -1.28065e-06 42.4333 0 27.3361Z" fill="url(#paint4_radial_1_13)"/>
<defs>
<linearGradient id="paint0_linear_1_13" x1="79.9319" y1="40.9228" x2="17.4722" y2="-6.17498" gradientUnits="userSpaceOnUse">
<stop stop-color="#FF557E"/>
<stop offset="0.841052" stop-color="#FF5555" stop-opacity="0"/>
</linearGradient>
<linearGradient id="paint1_linear_1_13" x1="26.5286" y1="51.0059" x2="43.78" y2="-6.98097" gradientUnits="userSpaceOnUse">
<stop stop-color="#58CCDC"/>
<stop offset="1" stop-color="#58CCDC" stop-opacity="0"/>
</linearGradient>
<radialGradient id="paint2_radial_1_13" cx="0" cy="0" r="1" gradientTransform="matrix(-36.8421 -58.6291 46.5831 -31.0914 83.2096 66.0609)" gradientUnits="userSpaceOnUse">
<stop stop-color="#8263DB"/>
<stop offset="0.568731" stop-color="#8172DA" stop-opacity="0.26"/>
<stop offset="1" stop-color="#8172DA" stop-opacity="0"/>
</radialGradient>
<radialGradient id="paint3_radial_1_13" cx="0" cy="0" r="1" gradientTransform="matrix(9.74522 45.9651 -70.1017 15.7861 33.4795 -7.90866)" gradientUnits="userSpaceOnUse">
<stop stop-color="#41D1B7"/>
<stop offset="0.492704" stop-color="#41D1B7" stop-opacity="0.35"/>
<stop offset="1" stop-color="#41D1B7" stop-opacity="0"/>
</radialGradient>
<radialGradient id="paint4_radial_1_13" cx="0" cy="0" r="1" gradientTransform="matrix(-28.5268 41.8114 -85.9311 -62.2715 109.106 -20.2562)" gradientUnits="userSpaceOnUse">
<stop stop-color="#FFEC45"/>
<stop offset="0.549191" stop-color="#FFEC45" stop-opacity="0.3"/>
<stop offset="0.961144" stop-color="#FFEC45" stop-opacity="0"/>
</radialGradient>
</defs>
</svg>
